<svg id="Layer_1" data-name="Layer 1" xmlns="http://www.w3.org/2000/svg" width="32" height="20" viewBox="0 0 32 20"><path fill="#444545" class="cls-1" d="M698.23,751h-26a3,3,0,0,0-3,3v14a3,3,0,0,0,3,3h26a3,3,0,0,0,3-3V754A3,3,0,0,0,698.23,751Zm-14.6,15.85A8.58,8.58,0,0,1,682,767a6,6,0,0,1-2-.32,4.21,4.21,0,0,1-1.65-1,5.13,5.13,0,0,1-1.13-1.87,8.12,8.12,0,0,1-.42-2.79,7.56,7.56,0,0,1,.47-2.85,5.2,5.2,0,0,1,1.22-1.85,4.53,4.53,0,0,1,1.68-1A5.86,5.86,0,0,1,682,755a9,9,0,0,1,1.68.13,6.07,6.07,0,0,1,1.13.31l-.45,1.92a3.31,3.31,0,0,0-.9-.26,8.27,8.27,0,0,0-1.26-.08,2.76,2.76,0,0,0-2.21,1,4.59,4.59,0,0,0-.84,3,6.27,6.27,0,0,0,.2,1.63,3.51,3.51,0,0,0,.6,1.26,2.78,2.78,0,0,0,1,.81,3.19,3.19,0,0,0,1.4.29,4.55,4.55,0,0,0,1.26-.15,3.71,3.71,0,0,0,.89-.38l.46,1.84A3.48,3.48,0,0,1,683.64,766.86Zm8.7,0a8.59,8.59,0,0,1-1.68.16,6,6,0,0,1-2-.32,4.21,4.21,0,0,1-1.65-1,5.13,5.13,0,0,1-1.13-1.87,8.12,8.12,0,0,1-.42-2.79,7.56,7.56,0,0,1,.47-2.85,5.2,5.2,0,0,1,1.22-1.85,4.53,4.53,0,0,1,1.68-1,5.86,5.86,0,0,1,1.85-.31,9,9,0,0,1,1.68.13,6,6,0,0,1,1.13.31l-.45,1.92a3.29,3.29,0,0,0-.9-.26,8.28,8.28,0,0,0-1.26-.08,2.76,2.76,0,0,0-2.21,1,4.59,4.59,0,0,0-.84,3,6.28,6.28,0,0,0,.2,1.63,3.51,3.51,0,0,0,.6,1.26,2.77,2.77,0,0,0,1,.81,3.19,3.19,0,0,0,1.4.29,4.55,4.55,0,0,0,1.26-.15,3.71,3.71,0,0,0,.89-.38l.46,1.84A3.48,3.48,0,0,1,692.33,766.86Z" transform="translate(-669.23 -751)"/></svg>